<svg xmlns="http://www.w3.org/2000/svg" fill="none" viewBox="0 0 24 24" id="Subway--Streamline-Outlined-Material" height="24" width="24">
  <desc>
    Subway Streamline Icon: https://streamlinehq.com
  </desc>
  <path fill="#000000" d="M2 22V8.65c0 -1.36665 0.354165 -2.56665 1.0625 -3.6 0.708335 -1.033335 1.695835 -1.8 2.9625 -2.3 0.93335 -0.35 1.925 -0.5625 2.975 -0.6375C10.05 2.0375 11.05 2 12 2c0.95 0 1.95415 0.0375 3.0125 0.1125 1.05835 0.075 2.05415 0.2875 2.9875 0.6375 1.26665 0.5 2.25 1.266665 2.95 2.3 0.7 1.03335 1.05 2.23335 1.05 3.6V22H2Zm6.675 -1.5h6.65l-2.025 -2.025h-2.6L8.675 20.5Zm-1.55 -7.2h9.75v-4.375h-9.75v4.375ZM15.5 16.475c0.27635 0 0.5079 -0.0934 0.69475 -0.28025 0.18685 -0.18685 0.28025 -0.4184 0.28025 -0.69475s-0.0934 -0.5079 -0.28025 -0.69475c-0.18685 -0.18685 -0.4184 -0.28025 -0.69475 -0.28025s-0.5079 0.0934 -0.69475 0.28025c-0.18685 0.18685 -0.28025 0.4184 -0.28025 0.69475s0.0934 0.5079 0.28025 0.69475c0.18685 0.18685 0.4184 0.28025 0.69475 0.28025Zm-7 0c0.27635 0 0.5079 -0.0934 0.69475 -0.28025 0.18685 -0.18685 0.28025 -0.4184 0.28025 -0.69475s-0.0934 -0.5079 -0.28025 -0.69475c-0.18685 -0.18685 -0.4184 -0.28025 -0.69475 -0.28025s-0.5079 0.0934 -0.69475 0.28025c-0.18685 0.18685 -0.28025 0.4184 -0.28025 0.69475s0.0934 0.5079 0.28025 0.69475c0.18685 0.18685 0.4184 0.28025 0.69475 0.28025ZM3.5 20.5h3.975v-0.5L9 18.475c-0.63335 0 -1.29165 -0.24585 -1.975 -0.7375C6.34165 17.24585 6 16.5 6 15.5V8.925c0 -1.2 0.55835 -1.9875 1.675 -2.3625C8.79165 6.1875 10.23335 6 12 6c1.5 0 2.875 0.1875 4.125 0.5625S18 7.725 18 8.925V15.5c0 0.93335 -0.30415 1.6625 -0.9125 2.1875 -0.60835 0.525 -1.30415 0.7875 -2.0875 0.7875L16.525 20v0.5H20.5V8.65c0 -1.1 -0.2625 -2.0125 -0.7875 -2.7375 -0.525 -0.725 -1.30785 -1.303165 -2.3485 -1.7345 -0.776 -0.318665 -1.6376 -0.511335 -2.58475 -0.578 -0.94715 -0.066665 -1.87215 -0.1 -2.775 -0.1 -0.90285 0 -1.8251 0.033335 -2.76675 0.1 -0.94165 0.066665 -1.8005 0.259335 -2.5765 0.578 -1.04065 0.431335 -1.827665 1.0095 -2.361 1.7345C3.766665 6.6375 3.5 7.55 3.5 8.65V20.5Z" stroke-width="0.5"></path>
</svg>